<?xml version="1.0" encoding="UTF-8" standalone="no"?>
<!-- Created with Inkscape (http://www.inkscape.org/) -->

<svg
   width="512mm"
   height="512mm"
   viewBox="0 0 512.00001 511.99999"
   version="1.1"
   id="svg1"
   inkscape:version="1.4 (e7c3feb1, 2024-10-09)"
   sodipodi:docname="ost-gradient-logo.svg"
   xmlns:inkscape="http://www.inkscape.org/namespaces/inkscape"
   xmlns:sodipodi="http://sodipodi.sourceforge.net/DTD/sodipodi-0.dtd"
   xmlns:xlink="http://www.w3.org/1999/xlink"
   xmlns="http://www.w3.org/2000/svg"
   xmlns:svg="http://www.w3.org/2000/svg">
  <sodipodi:namedview
     id="namedview1"
     pagecolor="#ffffff"
     bordercolor="#000000"
     borderopacity="0.25"
     inkscape:showpageshadow="2"
     inkscape:pageopacity="0.0"
     inkscape:pagecheckerboard="0"
     inkscape:deskcolor="#d1d1d1"
     inkscape:document-units="mm"
     inkscape:zoom="0.33243239"
     inkscape:cx="296.30085"
     inkscape:cy="1004.7156"
     inkscape:window-width="1920"
     inkscape:window-height="1027"
     inkscape:window-x="0"
     inkscape:window-y="25"
     inkscape:window-maximized="1"
     inkscape:current-layer="layer1" />
  <defs
     id="defs1">
    <linearGradient
       id="linearGradient1"
       inkscape:collect="always">
      <stop
         style="stop-color:#f68d29;stop-opacity:1;"
         offset="0"
         id="stop1" />
      <stop
         style="stop-color:#f05423;stop-opacity:1;"
         offset="1"
         id="stop2" />
    </linearGradient>
    <linearGradient
       inkscape:collect="always"
       xlink:href="#linearGradient1"
       id="linearGradient2"
       x1="259.12323"
       y1="43.121761"
       x2="259.12323"
       y2="555.12177"
       gradientUnits="userSpaceOnUse" />
  </defs>
  <g
     inkscape:label="Layer 1"
     inkscape:groupmode="layer"
     id="layer1"
     transform="translate(-3.1232244,-43.121764)">
    <path
       style="fill:url(#linearGradient2);stroke:none;stroke-width:2.00404"
       d="m 449.05149,126.90729 v 6e-5 c -1.03982,-9.5557 -9.98899,-4.62356 -12.83825,1.05947 -4.4379,8.85167 -0.66665,17.7397 -2.89978,26.48687 -0.77861,3.04971 -3.85899,6.21827 -5.41705,9.00554 -2.62807,4.70151 -4.71735,9.88943 -8.58706,13.75193 -8.03302,8.01811 -22.12184,9.13491 -32.88398,7.81566 -18.57013,-2.27639 -31.18767,-18.09725 -46.70421,-26.93242 -13.58675,-7.73635 -31.4026,-9.43396 -46.70426,-10.47989 -46.58428,-3.1842 -97.60571,12.5327 -129.40794,47.62893 -19.71853,21.76092 -30.73816,49.30796 -39.71958,76.81195 -3.93645,12.0547 -8.24665,24.10817 -10.78781,36.55186 -5.09625,24.95538 -6.82614,51.03392 -10.39142,76.28212 -1.60963,11.39898 -2.20719,23.722 -6.744693,34.43294 -9.890183,23.34617 -30.209182,35.32213 -55.04521,33.32808 -5.901817,-0.47386 -11.676872,-1.99529 -17.514082,-2.90047 -1.140778,-0.17691 -5.15449,-0.80552 -4.818315,1.38728 0.271435,1.77058 2.939274,3.11896 4.287599,3.97633 4.481342,2.84953 9.299498,5.0739 14.329706,6.76395 21.9624,7.379 44.490619,1.91349 61.033516,-14.48112 15.139849,-15.00415 20.390939,-36.64806 25.408269,-56.67987 10.11911,-40.40071 14.22584,-81.51559 34.40078,-118.6611 9.61899,-17.71017 22.12072,-35.56052 41.03001,-43.96823 -3.55046,8.52317 -5.21929,16.73602 -0.8649,25.4274 1.74439,3.48183 6.03253,6.75754 6.6243,10.59476 2.05749,13.3411 -2.3391,32.04956 -7.04651,44.49793 -5.26393,13.92007 -16.88533,23.58042 -28.43376,32.37526 -6.17795,4.70489 -14.52974,9.42952 -18.39044,16.36054 -3.01299,5.4091 -2.97835,12.00293 -2.83095,18.01106 0.48487,19.75399 5.22562,40.15479 0.6925,59.86033 -1.15067,5.00192 -5.06966,8.89315 -6.6714,13.77316 -1.10978,3.38109 -0.0954,7.45224 -1.62781,10.59474 -1.55108,3.18101 -5.27422,4.82969 -6.01741,8.47582 -1.27501,6.25533 3.375,10.42035 9.3705,8.42022 7.08303,-2.36298 16.10797,-8.56771 18.66277,-15.83654 2.24603,-6.39031 1.62632,-14.00072 2.08318,-20.65978 1.12881,-16.45263 0.59055,-39.47382 9.2157,-54.03319 22.86903,-38.60321 69.7036,-51.7795 99.91562,-82.72896 8.14739,-8.34623 13.97514,-18.68928 19.12633,-29.0456 1.40853,-2.83178 3.23797,-11.78363 6.1169,-13.06972 3.33172,-1.48829 12.11082,2.10483 15.77449,2.69244 11.83925,1.8995 23.60189,1.90149 35.55888,1.90149 -1.57871,3.65688 -5.22504,11.56092 -9.24805,12.9565 -1.86484,0.64688 -4.14008,-0.57801 -6.13533,-0.0745 -1.66653,0.42065 -2.63159,2.1369 -4.30108,2.41818 -5.00324,0.84287 -7.75874,-2.58424 -10.56712,3.77029 -5.73585,-1.46544 -9.59431,3.21824 -4.1324,7.49357 3.6032,2.82037 7.61798,0.70674 11.56261,0.70142 8.65319,-0.0133 16.52227,1.8609 23.17154,-5.17555 7.16382,-7.58102 5.84867,-19.54729 17.69466,-23.6792 -1.97817,10.17521 -6.2752,25.29548 -16.45262,30.26166 -7.17555,3.50139 -15.03106,-0.1644 -22.29066,2.7934 -2.14464,0.87375 -6.70376,1.4001 -6.16891,4.5567 0.47005,2.77438 3.84556,4.09797 6.16891,4.92706 8.18883,2.9221 12.76226,-0.59033 20.69845,-1.17148 3.23062,-0.2365 7.83982,0.94977 10.50118,-1.33702 3.47897,-2.98933 4.11254,-9.28969 7.02111,-13.01372 8.95784,-11.46911 18.87033,-22.14568 29.4072,-32.19502 2.25538,-2.15101 5.45561,-2.52539 8.26642,-3.62315 4.14087,-1.61718 7.99813,-3.91219 11.67605,-6.38669 14.13831,-9.51225 26.33891,-24.69653 32.90527,-40.43415 7.46662,3.05676 15.51374,2.00979 22.8214,4.70143 4.91821,1.81152 8.29737,7.28809 13.79894,7.88924 3.78247,0.41331 4.50194,-2.56719 2.65366,-5.17436 6.9678,-0.30311 13.46782,-5.88293 9.59574,-13.24343 -3.57377,-6.79343 -10.91531,-10.29362 -15.06112,-16.42388 -2.61509,-3.86689 -3.88607,-9.06665 -6.09438,-13.24139 -5.49032,-10.37941 -13.04463,-16.31762 -24.52987,-18.5408 3.61795,-6.86321 6.58675,-13.76874 4.95391,-21.71925 -1.05904,-5.15659 -3.87928,-10.06555 -9.19974,-5.8271 z M 41.981733,43.965379 c 12.274061,-1.755228 25.809212,-0.226925 38.21254,-0.226925 h 75.363617 231.92894 65.81049 c 19.70457,0 38.19503,-0.397612 51.84647,16.421858 10.54271,12.989213 9.71819,27.723152 9.71819,43.438448 v 64.62796 281.82023 45.02767 c 0,8.29864 1.03182,17.3298 -1.00578,25.4274 -4.33898,17.24363 -18.16066,30.14432 -35.61458,33.47688 -12.01086,2.2933 -25.98518,0.42634 -38.21254,0.42634 H 364.13471 126.89848 64.272366 c -20.420387,0 -39.974868,0.13115 -53.052092,-18.54126 C 2.1027904,522.84545 3.2384247,508.5775 3.2384247,493.4854 V 425.67905 147.03722 103.06901 c 0,-9.38934 -0.8005518,-18.954456 1.8190721,-28.076067 C 9.841697,58.334292 25.109857,46.37792 41.981733,43.9653"
       id="path12" />
  </g>
</svg>
